#!OML:ASF E:\VariousWalksJay\Project 1\Capture day 1\Session 1\Actor2.ASF
:FULLY-SPECIFIED
:DEGREES
758
root 10.3954 11.0841 22.8741 -2.55183 -61.3806 18.3803
lowerback 33.2977 -3.20906 9.44051
upperback 13.1361 -2.07086 1.56559
thorax -2.61116 -1.10353 -2.64568
lowerneck -10.7165 9.00737 0.606829
upperneck -19.2482 9.84518 -16.8367
head -3.03584 5.30321 -5.18091
rclavicle 5.24792e-014 1.90833e-014
rhumerus 52.5855 20.4415 9.18608
rradius 69.8883
rwrist -2.83708
rhand -6.96328 0.828545
rfingers 7.12502
rthumb 18.9061 -28.2726
lclavicle 5.24792e-014 1.90833e-014
lhumerus 52.4563 -2.27785 -27.9857
lradius 70.9045
lwrist 28.7601
lhand 22.0405 -5.12919
lfingers 7.12502
lthumb 46.431 17.7837
rfemur -77.0659 -37.4349 -8.89695
rtibia 95.3976
rfoot -22.1869 0.0733805
rtoes -31.1308
lfemur -80.861 39.9674 -18.2862
ltibia 65.8432
lfoot -0.402115 -2.8616
ltoes -21.4415
759
root 10.4421 11.0316 22.8718 -1.96506 -61.295 18.6472
lowerback 33.4333 -3.60342 10.0362
upperback 13.4442 -2.40613 1.82672
thorax -2.33288 -1.24726 -2.57049
lowerneck -10.4458 9.1861 0.61863
upperneck -20.0261 9.92037 -17.4576
head -3.26352 5.40474 -5.41818
rclavicle 3.49861e-014 -1.59028e-014
rhumerus 52.8237 19.644 13.0497
rradius 70.804
rwrist -4.31505
rhand -4.19795 0.0502464
rfingers 7.12502
rthumb 21.5639 -28.7692
lclavicle 3.49861e-014 -1.59028e-014
lhumerus 52.9084 -4.64938 -26.8502
lradius 74.2675
lwrist 35.0824
lhand 28.6275 -4.19303
lfingers 7.12502
lthumb 52.4688 15.63
rfemur -78.5787 -38.1369 -8.38778
rtibia 95.5634
rfoot -22.0088 0.485006
rtoes -31.044
lfemur -82.2769 39.4126 -18.8664
ltibia 66.1141
lfoot -0.501393 -2.35401
ltoes -21.648
760
root 10.4756 10.9821 22.8583 -1.34858 -61.5984 18.8583
lowerback 33.7192 -3.73439 10.2817
upperback 13.7282 -2.50582 2.14016
thorax -2.11052 -1.29762 -2.32983
lowerneck -10.1788 9.34872 0.64951
upperneck -20.7768 9.95429 -18.1955
head -3.47598 5.49055 -5.69809
rclavicle 5.725e-014 -4.37326e-014
rhumerus 52.8684 18.8848 16.5265
rradius 71.4693
rwrist -4.51032
rhand -3.0567 0.0598802
rfingers 7.12502
rthumb 22.6595 -28.6299
lclavicle 5.725e-014 -4.37326e-014
lhumerus 53.4063 -6.73946 -24.8049
lradius 77.2458
lwrist 36.6904
lhand 34.4313 -3.95759
lfingers 7.12502
lthumb 57.6407 12.0819
rfemur -80.2633 -38.2509 -7.71494
rtibia 95.7512
rfoot -21.8824 0.626608
rtoes -31.4373
lfemur -83.5859 39.3747 -19.3348
ltibia 66.3734
lfoot -0.343517 -1.9298
ltoes -21.0478
761
root 10.5048 10.9318 22.8484 -0.629123 -61.9611 18.9757
lowerback 34.0054 -3.87322 10.4259
upperback 14.0028 -2.64716 2.41349
thorax -1.9035 -1.37198 -2.06549
lowerneck -9.79052 9.46954 0.736495
upperneck -21.7727 9.90378 -18.7313
head -3.80309 5.53788 -5.95043
rclavicle 3.18055e-015 5.48646e-014
rhumerus 53.017 18.0901 19.3431
rradius 71.8291
rwrist -4.00831
rhand 0.102906 -0.199782
rfingers 7.12502
rthumb 25.6889 -28.4863
lclavicle 3.18055e-015 5.48646e-014
lhumerus 53.5265 -8.72293 -22.0171
lradius 80.0036
lwrist 35.472
lhand 38.8472 -4.64702
lfingers 7.12502
lthumb 61.4329 7.53559
rfemur -81.9629 -38.3321 -6.98933
rtibia 95.9271
rfoot -21.7855 1.03859
rtoes -31.4129
lfemur -84.949 39.4187 -19.7927
ltibia 66.6599
lfoot -0.450857 -1.7634
ltoes -21.1128
762
root 10.5298 10.8836 22.8397 0.205291 -62.3639 19.0231
lowerback 34.2313 -3.99547 10.4875
upperback 14.305 -2.80943 2.56582
thorax -1.65298 -1.45236 -1.88273
lowerneck -9.26564 9.52548 1.05173
upperneck -23.0178 9.73628 -19.0506
head -4.24374 5.51405 -6.20115
rclavicle 1.90833e-014 -9.38264e-014
rhumerus 52.3334 17.2326 21.1402
rradius 72.7214
rwrist -3.50398
rhand 1.22103 -0.442493
rfingers 7.12502
rthumb 26.7594 -28.5699
lclavicle 1.90833e-014 -9.38264e-014
lhumerus 53.5218 -10.4366 -18.9836
lradius 82.5162
lwrist 34.1771
lhand 41.6847 -5.34528
lfingers 7.12502
lthumb 63.7762 3.74591
rfemur -83.6642 -38.2383 -6.27457
rtibia 96.0971
rfoot -21.7017 1.37226
rtoes -31.5033
lfemur -86.3475 39.501 -20.2366
ltibia 66.9543
lfoot -0.467887 -1.593
ltoes -20.7683
763
root 10.5502 10.8326 22.8335 1.12127 -62.8522 19.0067
lowerback 34.4656 -4.35501 10.5336
upperback 14.6147 -3.27944 2.35602
thorax -1.44494 -1.6657 -1.97061
lowerneck -8.58226 9.68932 1.35658
upperneck -24.5888 9.75246 -18.9005
head -4.83616 5.57068 -6.33131
rclavicle -5.56597e-014 8.74653e-015
rhumerus 52.5904 16.2307 21.6571
rradius 72.9304
rwrist -3.422
rhand 3.34622 -0.851974
rfingers 7.12502
rthumb 28.7913 -28.6514
lclavicle -5.56597e-014 8.74653e-015
lhumerus 52.8995 -12.1366 -16.4751
lradius 85.0275
lwrist 34.0576
lhand 42.1295 -3.54761
lfingers 7.12502
lthumb 64.1352 5.0063
rfemur -85.5432 -38.2138 -5.35595
rtibia 96.285
rfoot -21.5957 1.74852
rtoes -31.8446
lfemur -87.8436 39.7305 -20.7315
ltibia 67.2942
lfoot -0.586823 -1.57931
ltoes -20.7586
764
root 10.5689 10.7861 22.8282 2.21074 -63.3899 18.8122
lowerback 34.8307 -5.01049 10.583
upperback 14.796 -4.07682 1.94974
thorax -1.4678 -2.03581 -2.14336
lowerneck -7.5581 9.89562 1.0532
upperneck -26.4125 9.93336 -18.1135
head -5.65299 5.73264 -6.20392
rclavicle -8.90555e-014 4.05521e-014
rhumerus 52.96 15.1674 21.2929
rradius 73.5666
rwrist -3.60457
rhand 6.39015 -1.36592
rfingers 7.12502
rthumb 31.695 -28.6326
lclavicle -8.90555e-014 4.05521e-014
lhumerus 51.5112 -13.9397 -13.9989
lradius 87.1877
lwrist 33.8086
lhand 41.1679 -2.28773
lfingers 7.12502
lthumb 63.356 7.40871
rfemur -87.2758 -37.9039 -4.53937
rtibia 96.4432
rfoot -21.468 1.9727
rtoes -31.9309
lfemur -89.3214 39.9983 -21.1251
ltibia 67.6419
lfoot -0.720584 -1.53189
ltoes -20.6679
